Coordinates
version=1
nRows=13
nColumns=36
inDegrees=yes

Units are S.I. units (second, meters, Newtons, ...)
If the header above contains a line with 'inDegrees', this indicates whether rotational values are in degrees (yes) or radians (no).

endheader
time	pelvis_tilt	pelvis_list	pelvis_rotation	pelvis_tx	pelvis_ty	pelvis_tz	hip_flexion_r	hip_adduction_r	hip_rotation_r	knee_angle_r	knee_angle_r_beta	ankle_angle_r	subtalar_angle_r	mtp_angle_r	hip_flexion_l	hip_adduction_l	hip_rotation_l	knee_angle_l	knee_angle_l_beta	ankle_angle_l	subtalar_angle_l	mtp_angle_l	lumbar_extension	lumbar_bending	lumbar_rotation	arm_flex_r	arm_add_r	arm_rot_r	elbow_flex_r	pro_sup_r	arm_flex_l	arm_add_l	arm_rot_l	elbow_flex_l	pro_sup_l
      4.50000000	    -27.06100025	      3.21349552	    -11.95108338	      1.14641000	      0.91903403	      0.03110080	     46.71477429	     -3.48963198	     -7.05737479	     30.41006340	      0.53075573	      9.52524179	    -12.66595112	     -7.49999987	     47.60050229	     -4.02993203	      1.84140470	     33.89242006	      0.59153432	     11.11156239	    -12.23599848	     -7.49999987	     -9.81599038	      4.73714816	     -1.69218806	   -165.34477772	   -160.63619534	   -158.66732429	     39.37405292	     80.27593821	    202.27399751	   -162.51591794	    189.01339533	     55.71906726	     65.46511017
      4.51666670	    -26.00168707	      2.87034948	    -11.81134830	      1.15546989	      0.93155435	      0.03344940	     42.35705584	     -3.03658531	     -8.04545678	     25.34443804	      0.44234389	      8.25974727	    -11.18622384	     -7.49999987	     43.45961264	     -4.19298178	      1.45015166	     29.19612862	      0.50956857	      9.59231312	    -11.64738105	     -7.49999987	     -7.60541207	      4.63399042	     -2.11467151	   -167.92669851	   -160.84999979	   -158.25458158	     38.51318258	     79.99670915	    199.81270773	   -162.60013512	    188.65166623	     55.39592599	     65.44567757
      4.53333330	    -25.78104823	      2.85458648	    -11.78268331	      1.16266080	      0.93406457	      0.03632166	     39.36394847	     -2.64807476	     -8.77347323	     20.94781408	      0.36560833	      7.27158275	     -9.99587341	     -7.49999987	     40.47103937	     -4.29481097	      0.85193321	     24.86021483	      0.43389260	      8.53519708	    -10.91740438	     -7.49999987	     -3.97677836	      4.22015010	     -1.92051142	   -171.28877124	   -160.88235684	   -158.65267555	     38.12272200	     79.91562585	    197.60080147	   -162.63231612	    189.37488144	     55.18572857	     65.46796435
      4.55000000	    -25.32081689	      2.67429619	    -11.72167364	      1.16720699	      0.93958813	      0.03408735	     36.34479909	     -2.28897205	     -9.48999877	     16.83831458	      0.29388403	      6.37564003	     -8.59415030	     -7.49999987	     37.44577440	     -4.32068055	     -0.00040820	     20.65186722	      0.36044308	      7.74631988	    -10.09605959	     -7.49999987	     -0.79006284	      4.08615970	     -2.28375607	   -173.69931892	   -160.64211781	   -158.29364605	     38.01579627	     79.82240167	    195.55839727	   -162.59139688	    189.17360954	     55.59179567	     65.44121284
      4.56666670	    -23.53390454	      2.18330629	    -11.76202154	      1.17748364	      0.94806086	      0.03773293	     31.72020172	     -1.82543436	    -10.49820095	     12.59896173	      0.21989336	      6.25315515	     -6.46066582	     -7.49999987	     32.78031472	     -4.39861385	     -1.29492512	     16.26574105	      0.28389074	      7.45349867	     -8.25883035	     -7.49999987	      0.34396691	      3.90436006	     -3.05837510	   -175.02139180	   -160.35524671	   -156.89615421	     38.22482820	     80.01824254	    193.27884802	   -162.58365978	    187.47121435	     57.08710261	     65.47392322
      4.58333330	    -23.34028730	      1.81264452	    -11.71716119	      1.18499773	      0.95378678	      0.03910395	     29.11703031	     -1.11844861	    -10.93135145	      8.97779871	      0.15669215	      5.45889503	     -5.70411750	     -7.49999987	     30.23794532	     -4.52759766	     -1.66876923	     12.60204299	      0.21994714	      6.70692475	     -7.61736786	     -7.49999987	      3.67647973	      3.97612397	     -3.66751148	   -176.65343245	   -159.93415422	   -155.49171182	     37.97216429	     79.93963126	    191.00751724	   -162.74027787	    186.49098277	     58.11258378	     65.45151413
      4.60000000	    -21.61108574	      1.29661550	    -11.80214569	      1.19648495	      0.95987511	      0.04011223	     24.88545379	     -0.57714113	    -11.85210949	      5.72777470	      0.09996853	      5.30027937	     -3.66783562	     -7.49999987	     25.92167190	     -4.58705627	     -3.72667408	      8.96799703	      0.15652108	      6.96581794	     -4.98793555	     -7.49999987	      4.63386470	      3.77851289	     -4.08169892	   -177.76963290	   -159.39247886	   -154.02524949	     38.34600041	     78.48103650	    189.20978562	   -162.90665563	    184.96149691	     59.78970151	     65.13388993
      4.61666670	    -20.47802893	      0.84896012	    -11.90121228	      1.20524355	      0.95951520	      0.04634084	     21.58840377	      0.11238457	    -12.18853783	      3.05581041	      0.05333395	      5.45627135	     -2.39768306	     -7.49999987	     22.60285907	     -4.75270281	     -5.56470021	      6.12452761	      0.10689317	      7.49798448	     -2.41215179	     -7.49999987	      6.33666173	      3.55130829	     -3.96473735	   -179.74631541	   -159.00345244	   -154.39597897	     39.46468547	     77.89170309	    187.86795092	   -162.69309731	    184.74480965	     61.17464786	     64.99418477
      4.63333330	    -19.62429215	      0.53811350	    -12.00491994	      1.20957114	      0.95368530	      0.04833079	     19.09074939	      0.66085805	    -12.13977691	      1.30759167	      0.02282178	      5.87752882	     -1.96092899	     -7.49999987	     20.15094849	     -4.81773462	     -6.83447678	      4.10064412	      0.07156974	      7.98102330	     -0.68190442	     -7.49999987	      8.15303250	      3.26940375	     -3.77676852	   -181.37720959	   -158.49203576	   -154.39493694	     40.73854081	     77.56267916	    186.80909829	   -162.31674187	    184.43616871	     62.83571545	     64.84798094
      4.65000000	    -18.86005857	      0.21043523	    -12.07908887	      1.21020101	      0.94732333	      0.04919237	     17.35202863	      1.10905225	    -11.85267017	      0.59935129	      0.01046065	      7.05770540	     -2.14987741	     -7.49999987	     18.32411721	     -4.96359452	     -8.13853622	      2.87065469	      0.05010238	      9.22664750	      1.14915611	     -7.49999987	      9.49947457	      2.98316891	     -3.58148692	   -182.56517530	   -157.80507340	   -154.38408177	     42.74410524	     77.21398611	    186.02441908	   -161.79288928	    184.02387230	     65.31124606	     64.60386847
      4.66666670	    -18.35745403	     -0.07240088	    -12.02913525	      1.21049387	      0.94075715	      0.04817180	     16.32785819	      1.40743026	    -11.72708085	      0.37536411	      0.00655134	      8.36235118	     -2.72792588	     -7.49999987	     17.23477229	     -5.11241422	     -8.01119926	      2.31063916	      0.04032826	     10.11691587	      1.26674232	     -7.49999987	     11.27824062	      2.78082829	     -3.46414021	   -183.06960121	   -157.33272999	   -154.37071516	     43.13785028	     77.20086991	    186.03984104	   -161.39146518	    183.81689519	     66.09736095	     64.57823245
      4.68333330	    -17.37380223	     -0.32064950	    -12.14914708	      1.21483051	      0.93928470	      0.05012331	     14.88723272	      1.61087863	    -10.98049851	      0.33132009	      0.00578263	      9.24259423	     -3.74461525	     -7.49999987	     15.67457142	     -5.22203920	     -8.79837006	      1.96351867	      0.03426987	     11.56126621	      2.93761475	     -7.49999987	     11.53866407	      2.59415628	     -3.26882328	   -183.65137874	   -156.26740171	   -154.29068816	     46.44925067	     77.15427813	    185.63309160	   -160.72268968	    183.39144348	     69.50238133	     64.30227155
      4.70000000	    -16.45321981	     -0.59694996	    -12.08485213	      1.21507884	      0.93238982	      0.04913093	     13.63477239	      1.75863177	    -10.47238024	      0.33227853	      0.00579935	      9.92848341	     -4.97392730	     -7.49999987	     14.45844548	     -5.32181552	     -8.96178021	      1.94428794	      0.03393423	     12.89677348	      3.45514255	     -7.49999987	     12.06394556	      2.40016959	     -3.29770277	   -183.62772666	   -155.50439498	   -154.39507064	     48.17748134	     77.17462982	    185.66684637	   -160.26777684	    182.74267743	     71.32581882	     63.88082983
